<svg width="85" height="38" viewBox="0 0 85 38" fill="none" xmlns="http://www.w3.org/2000/svg">
<path d="M9.57373 0.872314C9.47998 1.57544 9.41748 2.29419 9.38623 3.02856C9.35498 3.74731 9.33936 4.49731 9.33936 5.27856C9.33936 6.66919 9.40967 8.09106 9.55029 9.54419C9.69092 10.9817 9.90186 12.4192 10.1831 13.8567C10.4644 15.2942 10.8159 16.7083 11.2378 18.0989C11.6597 19.4739 12.144 20.7864 12.6909 22.0364C13.2534 23.2864 13.8784 24.4504 14.5659 25.5286C15.269 26.6067 16.0425 27.5598 16.8862 28.3879C17.8081 27.4348 18.5503 26.3411 19.1128 25.1067C19.6909 23.8567 20.1362 22.5598 20.4487 21.2161C20.7769 19.8567 20.9956 18.4895 21.105 17.1145C21.2144 15.7395 21.2769 14.4348 21.2925 13.2004H26.4487C26.4487 14.4348 26.5034 15.7317 26.6128 17.0911C26.7222 18.4504 26.9331 19.802 27.2456 21.1458C27.5581 22.4739 27.9956 23.7629 28.5581 25.0129C29.1206 26.2473 29.855 27.3567 30.7612 28.3411C32.0737 26.9192 33.2065 25.3098 34.1597 23.5129C35.1128 21.7004 35.9019 19.802 36.5269 17.8176C37.1519 15.8333 37.6128 13.802 37.9097 11.7239C38.2065 9.64575 38.355 7.60669 38.355 5.60669C38.355 3.93481 38.2612 2.32544 38.0737 0.778564C39.4487 0.841064 40.6753 0.934814 41.7534 1.05981C42.8472 1.18481 43.7925 1.30981 44.5894 1.43481C45.4956 1.59106 46.3081 1.74731 47.0269 1.90356V7.80981C46.5112 7.63794 46.0034 7.50513 45.5034 7.41138C45.019 7.302 44.5425 7.18481 44.0737 7.05981C44.0737 10.4192 43.7456 13.5364 43.0894 16.4114C42.4487 19.2708 41.5503 21.9426 40.394 24.427C39.2378 26.9114 37.855 29.2161 36.2456 31.3411C34.6362 33.4661 32.8706 35.4504 30.9487 37.2942C29.5737 35.9661 28.2925 34.4817 27.105 32.8411C25.9331 31.2004 24.855 29.3411 23.8706 27.2629C22.855 29.3411 21.7456 31.2083 20.5425 32.8645C19.355 34.5208 18.0737 36.0129 16.6987 37.3411C14.7925 35.4973 13.0503 33.5129 11.4722 31.3879C9.89404 29.2629 8.54248 26.9583 7.41748 24.4739C6.29248 21.9895 5.41748 19.3176 4.79248 16.4583C4.16748 13.5833 3.85498 10.4661 3.85498 7.10669C3.29248 7.23169 2.74561 7.34888 2.21436 7.45825C1.69873 7.552 1.18311 7.68481 0.66748 7.85669V1.90356C0.66748 1.91919 0.870605 1.88794 1.27686 1.80981C1.69873 1.73169 2.29248 1.63794 3.05811 1.52856C3.83936 1.40356 4.77686 1.28638 5.87061 1.177C6.96436 1.052 8.19873 0.950439 9.57373 0.872314ZM66.7612 0.591064C69.1675 0.591064 71.4331 0.802002 73.5581 1.22388C75.6831 1.64575 77.5425 2.23169 79.1362 2.98169C80.73 3.73169 81.9878 4.63794 82.9097 5.70044C83.8315 6.74731 84.2925 7.90356 84.2925 9.16919V27.8254C84.2925 29.0911 83.8315 30.2551 82.9097 31.3176C81.9878 32.3645 80.73 33.2629 79.1362 34.0129C77.5425 34.7629 75.6831 35.3489 73.5581 35.7708C71.4331 36.1926 69.1675 36.4036 66.7612 36.4036C65.4175 36.4036 64.0425 36.3567 62.6362 36.2629C61.23 36.1536 59.8628 36.0208 58.5347 35.8645C57.2222 35.6926 55.9878 35.4973 54.8315 35.2786C53.6753 35.0598 52.6831 34.8254 51.855 34.5754V2.41919C52.6831 2.16919 53.6753 1.93481 54.8315 1.71606C55.9878 1.49731 57.2222 1.30981 58.5347 1.15356C59.8628 0.981689 61.23 0.848877 62.6362 0.755127C64.0425 0.645752 65.4175 0.591064 66.7612 0.591064ZM66.855 5.88794C65.4331 5.88794 64.1987 5.93481 63.1519 6.02856C62.105 6.10669 61.2065 6.21606 60.4565 6.35669C59.7065 6.48169 59.0815 6.62231 58.5815 6.77856C58.0972 6.91919 57.6987 7.04419 57.3862 7.15356V29.8411C57.6987 29.9661 58.0972 30.0989 58.5815 30.2395C59.0815 30.3801 59.7065 30.5208 60.4565 30.6614C61.2065 30.7864 62.105 30.8958 63.1519 30.9895C64.1987 31.0676 65.4331 31.1067 66.855 31.1067C68.605 31.1067 70.1753 30.9661 71.5659 30.6848C72.9722 30.4036 74.1519 30.0286 75.105 29.5598C76.0737 29.0911 76.8159 28.552 77.3315 27.9426C77.8472 27.3176 78.105 26.6692 78.105 25.9973V10.9973C78.105 10.3254 77.8472 9.68481 77.3315 9.07544C76.8159 8.45044 76.0737 7.90356 75.105 7.43481C74.1519 6.96606 72.9722 6.59106 71.5659 6.30981C70.1753 6.02856 68.605 5.88794 66.855 5.88794Z" fill="#34547A"/>
</svg>
